<svg width="338" height="344" viewBox="0 0 338 344" fill="none" xmlns="http://www.w3.org/2000/svg">
<path d="M96.5278 -56.9753L385.429 109.939V398.283L96.5278 231.361V-56.9753Z" fill="white" stroke="#AAAAAA" stroke-linecap="round" stroke-linejoin="round"/>
<path d="M96.5278 -56.9754L114.015 -67.0825L402.651 99.9914L403.393 387.903L385.429 398.283" stroke="#AAAAAA" stroke-miterlimit="10"/>
<path d="M110.795 75.6753L137.321 90.5516V239.33L111.568 224.446L110.795 75.6753Z" fill="white" stroke="#AAAAAA" stroke-miterlimit="10"/>
<path d="M110.795 135.188L137.321 150.512" stroke="#AAAAAA" stroke-miterlimit="10"/>
<path d="M162.294 172.379L188.82 187.255V268.658L163.067 253.782L162.294 172.379Z" fill="white" stroke="#AAAAAA" stroke-miterlimit="10"/>
<path d="M162.665 194.458L188.82 209.57" stroke="#AAAAAA" stroke-miterlimit="10"/>
<path d="M166.757 174.881L162.339 177.436" stroke="#AAAAAA" stroke-miterlimit="10"/>
<path d="M171.477 177.527L162.385 182.782" stroke="#AAAAAA" stroke-miterlimit="10"/>
<path d="M176.205 180.181L162.438 188.127" stroke="#AAAAAA" stroke-miterlimit="10"/>
<path d="M180.918 182.827L162.491 193.473" stroke="#AAAAAA" stroke-miterlimit="10"/>
<path d="M166.378 196.612L185.638 185.473H185.645" stroke="#AAAAAA" stroke-miterlimit="10"/>
<path d="M188.82 189.022L171.022 199.296" stroke="#AAAAAA" stroke-miterlimit="10"/>
<path d="M175.667 201.98H175.675L188.82 194.39" stroke="#AAAAAA" stroke-miterlimit="10"/>
<path d="M188.82 199.766L180.327 204.672" stroke="#AAAAAA" stroke-miterlimit="10"/>
<path d="M188.82 205.134L184.979 207.363" stroke="#AAAAAA" stroke-miterlimit="10"/>
<path d="M213.793 153.105L240.319 167.981V298.653L214.566 283.777L213.793 153.105Z" fill="white" stroke="#AAAAAA" stroke-miterlimit="10"/>
<path d="M214.217 224.469L240.607 239.178" stroke="#AAAAAA" stroke-miterlimit="10"/>
<path d="M213.845 153.135L213.793 153.165" stroke="#AAAAAA" stroke-miterlimit="10"/>
<path d="M218.559 155.781L213.823 158.519" stroke="#AAAAAA" stroke-miterlimit="10"/>
<path d="M223.287 158.427L213.861 163.879" stroke="#AAAAAA" stroke-miterlimit="10"/>
<path d="M228 161.074L213.892 169.232" stroke="#AAAAAA" stroke-miterlimit="10"/>
<path d="M232.727 163.72L213.914 174.593" stroke="#AAAAAA" stroke-miterlimit="10"/>
<path d="M237.44 166.366L213.945 179.954" stroke="#AAAAAA" stroke-miterlimit="10"/>
<path d="M240.319 170.089L213.982 185.307" stroke="#AAAAAA" stroke-miterlimit="10"/>
<path d="M240.319 175.465L214.013 190.66" stroke="#AAAAAA" stroke-miterlimit="10"/>
<path d="M240.319 180.833L214.043 196.013" stroke="#AAAAAA" stroke-miterlimit="10"/>
<path d="M240.319 186.216L214.073 201.381" stroke="#AAAAAA" stroke-miterlimit="10"/>
<path d="M240.319 191.584L214.111 206.734" stroke="#AAAAAA" stroke-miterlimit="10"/>
<path d="M240.319 196.968L214.142 212.087" stroke="#AAAAAA" stroke-miterlimit="10"/>
<path d="M240.319 202.344L214.172 217.447" stroke="#AAAAAA" stroke-miterlimit="10"/>
<path d="M240.319 207.712L214.202 222.801" stroke="#AAAAAA" stroke-miterlimit="10"/>
<path d="M240.319 213.088L217.483 226.296H217.475" stroke="#AAAAAA" stroke-miterlimit="10"/>
<path d="M240.319 218.464L222.211 228.927" stroke="#AAAAAA" stroke-miterlimit="10"/>
<path d="M240.319 223.847L226.954 231.573" stroke="#AAAAAA" stroke-miterlimit="10"/>
<path d="M240.319 229.215L231.689 234.204" stroke="#AAAAAA" stroke-miterlimit="10"/>
<path d="M240.319 234.591L236.417 236.843" stroke="#AAAAAA" stroke-miterlimit="10"/>
<path d="M265.292 232.036L291.818 246.912V328.322L266.065 313.446L265.292 232.036Z" fill="white" stroke="#AAAAAA" stroke-miterlimit="10"/>
<path d="M265.8 254.38L292.106 269.34" stroke="#AAAAAA" stroke-miterlimit="10"/>
<path d="M269.391 234.333L265.338 236.683" stroke="#AAAAAA" stroke-miterlimit="10"/>
<path d="M274.119 236.994L265.391 242.029" stroke="#AAAAAA" stroke-miterlimit="10"/>
<path d="M278.839 239.641L265.444 247.374" stroke="#AAAAAA" stroke-miterlimit="10"/>
<path d="M283.56 242.287L265.489 252.72" stroke="#AAAAAA" stroke-miterlimit="10"/>
<path d="M288.288 244.933L268.899 256.14H268.891" stroke="#AAAAAA" stroke-miterlimit="10"/>
<path d="M291.818 248.262L273.573 258.801" stroke="#AAAAAA" stroke-miterlimit="10"/>
<path d="M291.818 253.645L278.271 261.47" stroke="#AAAAAA" stroke-miterlimit="10"/>
<path d="M291.818 259.013L282.961 264.131" stroke="#AAAAAA" stroke-miterlimit="10"/>
<path d="M291.818 264.381L287.644 266.8" stroke="#AAAAAA" stroke-miterlimit="10"/>
<path d="M114.871 77.9653L110.81 80.3158" stroke="#AAAAAA" stroke-miterlimit="10"/>
<path d="M119.599 80.6189L110.84 85.6762" stroke="#AAAAAA" stroke-miterlimit="10"/>
<path d="M110.871 91.0369L124.312 83.2651H124.327" stroke="#AAAAAA" stroke-miterlimit="10"/>
<path d="M129.04 85.9114L110.901 96.3976" stroke="#AAAAAA" stroke-miterlimit="10"/>
<path d="M133.767 88.5576L110.924 101.758" stroke="#AAAAAA" stroke-miterlimit="10"/>
<path d="M137.313 91.8862L110.954 107.104" stroke="#AAAAAA" stroke-miterlimit="10"/>
<path d="M137.313 97.2544L110.984 112.472" stroke="#AAAAAA" stroke-miterlimit="10"/>
<path d="M137.313 102.63L111.014 117.825" stroke="#AAAAAA" stroke-miterlimit="10"/>
<path d="M137.313 108.006L111.037 123.193" stroke="#AAAAAA" stroke-miterlimit="10"/>
<path d="M137.313 113.382L111.06 128.546" stroke="#AAAAAA" stroke-miterlimit="10"/>
<path d="M137.313 118.758L111.09 133.907" stroke="#AAAAAA" stroke-miterlimit="10"/>
<path d="M137.313 124.133L114.485 137.319" stroke="#AAAAAA" stroke-miterlimit="10"/>
<path d="M137.313 129.501L119.137 140.01" stroke="#AAAAAA" stroke-miterlimit="10"/>
<path d="M137.313 134.885L123.789 142.702" stroke="#AAAAAA" stroke-miterlimit="10"/>
<path d="M137.313 140.253L128.441 145.386" stroke="#AAAAAA" stroke-miterlimit="10"/>
<path d="M137.314 145.636L133.093 148.078" stroke="#AAAAAA" stroke-miterlimit="10"/>
<path d="M329.073 216.158L365.949 237.411V301.269L329.073 280.122V216.158Z" stroke="#AAAAAA" stroke-miterlimit="10"/>
<path d="M332.422 239.641L362.411 256.928" stroke="#AAAAAA" stroke-miterlimit="10"/>
<path d="M332.422 245.494L362.411 262.782" stroke="#AAAAAA" stroke-miterlimit="10"/>
<path d="M332.422 251.348L362.411 268.635" stroke="#AAAAAA" stroke-miterlimit="10"/>
<path d="M332.422 257.201L344.772 264.298" stroke="#AAAAAA" stroke-miterlimit="10"/>
<path d="M332.422 263.054L359.448 278.628" stroke="#AAAAAA" stroke-miterlimit="10"/>
<path d="M332.422 268.908L346.742 277.142" stroke="#AAAAAA" stroke-miterlimit="10"/>
<path d="M332.422 222.967L349.735 233.309L349.674 243.454L332.422 233.393V222.967Z" stroke="#AAAAAA" stroke-miterlimit="10"/>
<path d="M329.073 288.349L365.949 309.602V360.122L329.073 338.975V288.349Z" stroke="#AAAAAA" stroke-miterlimit="10"/>
<path d="M332.255 295.15L362.259 312.907V330.316L332.255 313.051V295.15Z" stroke="#AAAAAA" stroke-miterlimit="10"/>
<path d="M332.255 317.343L362.259 335.101V352.509L332.255 335.245V317.343Z" stroke="#AAAAAA" stroke-miterlimit="10"/>
<path d="M308.987 337.557V215.582" stroke="#AAAAAA" stroke-miterlimit="10"/>
<path d="M251.116 -36.3593L260.375 -40.666L373.715 24.1164V224.317L363.615 228.844L251.116 -36.3593Z" fill="white" stroke="#AAAAAA" stroke-miterlimit="10"/>
<path d="M251.116 -36.3594L364.835 28.6353L363.615 228.844L251.116 164.281V-36.3594Z" fill="white" stroke="#AAAAAA" stroke-miterlimit="10"/>
<path d="M261.814 -22.0215L306.661 3.79593" stroke="#AAAAAA" stroke-miterlimit="10"/>
<path d="M291.712 3.31075L261.814 -13.9084" stroke="#AAAAAA" stroke-miterlimit="10"/>
<path d="M274.021 1.24087L261.814 -5.78784" stroke="#AAAAAA" stroke-miterlimit="10"/>
<path d="M286.727 16.6707L261.814 2.33276" stroke="#AAAAAA" stroke-miterlimit="10"/>
<path d="M355.251 67.7672V91.7952L336.605 80.71L260.64 35.5352V12.7886C260.64 13.3952 308.98 41.3204 336.642 57.1369L355.251 67.7672Z" fill="white" stroke="#AAAAAA" stroke-miterlimit="10"/>
<path d="M355.251 98.3992V122.412L336.605 111.289L308.571 94.5626L260.64 66.1673V43.4207C260.64 43.8453 284.59 57.9178 308.631 71.7175C318.602 77.4496 328.535 83.1287 336.665 87.769L355.251 98.3992Z" fill="white" stroke="#AAAAAA" stroke-miterlimit="10"/>
<path d="M355.251 129.031V153.059L336.605 141.936L320.231 132.163L260.64 96.7994V74.0527C260.64 74.5456 293.182 93.5087 320.269 109.029L336.642 118.401L355.251 129.031Z" fill="white" stroke="#AAAAAA" stroke-miterlimit="10"/>
<path d="M355.251 159.656V183.684L336.605 172.561L286.401 142.588L260.64 127.424V104.677C260.64 104.965 271.589 111.615 286.401 120.198C302.312 129.403 322.292 140.837 336.612 149.01L355.251 159.656Z" fill="white" stroke="#AAAAAA" stroke-miterlimit="10"/>
<path d="M355.251 190.288V214.316L340.196 205.331L336.605 203.193L260.64 158.048V135.302C260.64 135.908 308.98 163.834 336.642 179.65L340.196 181.705L355.251 190.288Z" fill="white" stroke="#AAAAAA" stroke-miterlimit="10"/>
<path d="M355.251 98.3993V122.412L336.605 111.289L308.571 94.5627V71.71C318.542 77.4421 328.475 83.1212 336.605 87.7615L355.251 98.3993Z" fill="white" stroke="#AAAAAA" stroke-miterlimit="10"/>
<path d="M355.251 129.031V153.059L336.605 141.936L320.231 132.163V109.022L336.605 118.394L355.251 129.031Z" fill="white" stroke="#AAAAAA" stroke-miterlimit="10"/>
<path d="M355.251 159.656V183.684L336.604 172.561L286.401 142.588V120.19C302.312 129.395 322.292 140.829 336.612 149.003L355.251 159.656Z" fill="white" stroke="#AAAAAA" stroke-miterlimit="10"/>
<path d="M355.251 67.7671V91.7951L336.604 80.7099V57.2051L355.251 67.7671Z" fill="white" stroke="#AAAAAA" stroke-miterlimit="10"/>
<path d="M341.105 59.6997L336.612 62.2928" stroke="#AAAAAA" stroke-miterlimit="10"/>
<path d="M345.878 62.4216L336.612 67.7822" stroke="#AAAAAA" stroke-miterlimit="10"/>
<path d="M336.612 73.2568L350.644 65.1438" stroke="#AAAAAA" stroke-miterlimit="10"/>
<path d="M355.251 67.9795L336.612 78.7462" stroke="#AAAAAA" stroke-miterlimit="10"/>
<path d="M308.676 71.7629L308.593 71.8155" stroke="#AAAAAA" stroke-miterlimit="10"/>
<path d="M308.593 77.2981L313.435 74.4927H313.442" stroke="#AAAAAA" stroke-miterlimit="10"/>
<path d="M318.208 77.2297L308.593 82.7799" stroke="#AAAAAA" stroke-miterlimit="10"/>
<path d="M322.966 79.9592L308.593 88.2618" stroke="#AAAAAA" stroke-miterlimit="10"/>
<path d="M327.732 82.689L308.593 93.7438" stroke="#AAAAAA" stroke-miterlimit="10"/>
<path d="M332.498 85.4185L312.548 96.9434" stroke="#AAAAAA" stroke-miterlimit="10"/>
<path d="M337.271 88.1406L317.216 99.7262" stroke="#AAAAAA" stroke-miterlimit="10"/>
<path d="M342.045 90.8701L321.883 102.516" stroke="#AAAAAA" stroke-miterlimit="10"/>
<path d="M346.818 93.592L326.55 105.299" stroke="#AAAAAA" stroke-miterlimit="10"/>
<path d="M351.591 96.3142L331.225 108.089" stroke="#AAAAAA" stroke-miterlimit="10"/>
<path d="M355.251 99.6807L335.885 110.872" stroke="#AAAAAA" stroke-miterlimit="10"/>
<path d="M324.664 111.554L320.239 114.11" stroke="#AAAAAA" stroke-miterlimit="10"/>
<path d="M329.429 114.284L320.239 119.591" stroke="#AAAAAA" stroke-miterlimit="10"/>
<path d="M334.195 117.014L320.239 125.074" stroke="#AAAAAA" stroke-miterlimit="10"/>
<path d="M338.961 119.736L320.239 130.555" stroke="#AAAAAA" stroke-miterlimit="10"/>
<path d="M343.742 122.465L323.542 134.134" stroke="#AAAAAA" stroke-miterlimit="10"/>
<path d="M348.508 125.187L328.209 136.917" stroke="#AAAAAA" stroke-miterlimit="10"/>
<path d="M353.288 127.917L332.877 139.707" stroke="#AAAAAA" stroke-miterlimit="10"/>
<path d="M355.251 132.261L337.544 142.49" stroke="#AAAAAA" stroke-miterlimit="10"/>
<path d="M287.196 120.646L286.401 121.108" stroke="#AAAAAA" stroke-miterlimit="10"/>
<path d="M291.947 123.39L286.401 126.597" stroke="#AAAAAA" stroke-miterlimit="10"/>
<path d="M296.69 126.127L286.401 132.072" stroke="#AAAAAA" stroke-miterlimit="10"/>
<path d="M301.456 128.865L286.401 137.561" stroke="#AAAAAA" stroke-miterlimit="10"/>
<path d="M306.207 131.602L286.787 142.816" stroke="#AAAAAA" stroke-miterlimit="10"/>
<path d="M310.972 134.324L291.447 145.606" stroke="#AAAAAA" stroke-miterlimit="10"/>
<path d="M315.73 137.061L296.122 148.389" stroke="#AAAAAA" stroke-miterlimit="10"/>
<path d="M320.489 139.791L300.782 151.171" stroke="#AAAAAA" stroke-miterlimit="10"/>
<path d="M325.262 142.52L305.457 153.962" stroke="#AAAAAA" stroke-miterlimit="10"/>
<path d="M330.02 145.25L310.124 156.744" stroke="#AAAAAA" stroke-miterlimit="10"/>
<path d="M334.794 147.979L314.791 159.535" stroke="#AAAAAA" stroke-miterlimit="10"/>
<path d="M339.559 150.709L319.458 162.317" stroke="#AAAAAA" stroke-miterlimit="10"/>
<path d="M344.325 153.431L324.125 165.108" stroke="#AAAAAA" stroke-miterlimit="10"/>
<path d="M349.106 156.153L328.793 167.89" stroke="#AAAAAA" stroke-miterlimit="10"/>
<path d="M353.88 158.875L333.46 170.681" stroke="#AAAAAA" stroke-miterlimit="10"/>
<path d="M355.251 163.576L338.127 173.463" stroke="#AAAAAA" stroke-miterlimit="10"/>
<path d="M50.9158 189.583L57.303 185.89L142.14 233.347L141.988 299.737L134.699 305.196" fill="white"/>
<path d="M50.9158 189.583L57.303 185.89L142.14 233.347L141.988 299.737L134.699 305.196" stroke="#AAAAAA" stroke-linecap="round" stroke-linejoin="round"/>
<path d="M50.9158 189.583L134.699 237.647V305.197L51.7644 257.277L50.9158 189.583Z" fill="white" stroke="#AAAAAA" stroke-linecap="round" stroke-linejoin="round"/>
<path d="M134.699 237.647L142.14 233.347" stroke="#AAAAAA" stroke-linecap="round" stroke-linejoin="round"/>
<path d="M51.2112 196.24L134.699 244.47" stroke="#AAAAAA" stroke-linecap="round" stroke-linejoin="round"/>
<path d="M129.578 246.548V297.834L54.9998 255.055V203.731L129.578 246.548Z" fill="white" stroke="#AAAAAA" stroke-linecap="round" stroke-linejoin="round"/>
<path d="M129.578 291.73V297.834L54.9998 255.055V248.914L129.578 291.73Z" stroke="#AAAAAA" stroke-linecap="round" stroke-linejoin="round"/>
<path d="M127.373 292.822V295.067L88.6632 272.843L56.803 254.555V252.311L88.6632 270.599L127.373 292.822Z" fill="#AAAAAA"/>
<path d="M127.373 292.822V295.067L88.6631 272.843V270.599L127.373 292.822Z" fill="#AAAAAA"/>
<path d="M85.6929 235.433L85.6475 252.311L98.5279 251.302L85.6929 235.433Z" fill="#AAAAAA"/>
<path d="M0.378906 214.377L5.38713 211.488L71.8352 248.656L71.7139 300.662L66.0087 304.939" fill="white"/>
<path d="M0.378906 214.377L5.38713 211.488L71.8352 248.656L71.7139 300.662L66.0087 304.939" stroke="#AAAAAA" stroke-linecap="round" stroke-linejoin="round"/>
<path d="M0.378906 214.377L66.0087 252.022V304.939L1.04566 267.399L0.378906 214.377Z" fill="white" stroke="#AAAAAA" stroke-linecap="round" stroke-linejoin="round"/>
<path d="M66.0085 252.022L71.8351 248.656" stroke="#AAAAAA" stroke-linecap="round" stroke-linejoin="round"/>
<path d="M0.61377 219.593L66.0086 257.375" stroke="#AAAAAA" stroke-linecap="round" stroke-linejoin="round"/>
<path d="M62.0007 258.998V299.169L3.58398 265.663V225.462L62.0007 258.998Z" fill="white" stroke="#AAAAAA" stroke-linecap="round" stroke-linejoin="round"/>
<path d="M62.0007 294.384V299.169L3.58398 265.663V260.856L62.0007 294.384Z" stroke="#AAAAAA" stroke-linecap="round" stroke-linejoin="round"/>
<path d="M60.2731 295.241V297L29.9434 279.599L4.99316 265.269V263.51L29.9434 277.84L60.2731 295.241Z" fill="#AAAAAA"/>
<path d="M60.2731 295.241V297L29.9434 279.599V277.84L60.2731 295.241Z" fill="#AAAAAA"/>
<path d="M27.6248 250.294L27.5869 263.509L37.6791 262.721L27.6248 250.294Z" fill="#AAAAAA"/>
<path d="M219.817 343.13C198.928 331.059 165.173 331.059 144.428 343.13C123.683 355.201 123.789 374.763 144.67 386.826C165.552 398.89 199.306 398.897 220.059 386.826C240.812 374.755 240.698 355.193 219.817 343.13Z" fill="white" stroke="#AAAAAA" stroke-miterlimit="10"/>
<path d="M235.531 342.107V359.94C235.22 367.575 230.076 375.104 220.059 380.958C199.306 393.021 165.56 393.021 144.67 380.958C134.184 374.892 128.934 366.954 128.934 358.97V341.167C128.958 344.282 129.738 347.344 131.207 350.091C133.677 354.86 138.17 359.356 144.686 363.125C165.575 375.188 199.322 375.188 220.074 363.125C226.461 359.409 230.871 354.989 233.303 350.295C234.641 347.764 235.402 344.967 235.531 342.107Z" fill="white" stroke="#AAAAAA" stroke-miterlimit="10"/>
<path d="M219.817 319.421C198.928 307.35 165.173 307.35 144.428 319.421C123.683 331.491 123.789 351.054 144.67 363.117C165.552 375.18 199.306 375.188 220.059 363.117C240.812 351.046 240.698 331.484 219.817 319.421Z" fill="white" stroke="#AAAAAA" stroke-miterlimit="10"/>
<path d="M27.5869 283.617V314.97L129.04 374.558" stroke="#AAAAAA" stroke-miterlimit="10"/>
<path d="M90.3452 280.175V321.908L128.934 344.548" stroke="#AAAAAA" stroke-miterlimit="10"/>
<path d="M280.37 337.557V401.293L235.553 375.4" stroke="#AAAAAA" stroke-miterlimit="10"/>
<path d="M175.553 277.499V310.587" stroke="#AAAAAA" stroke-miterlimit="10"/>
<path d="M21.8438 312.87V319.504L27.5869 322.825L33.3225 319.504V312.87L27.5869 309.556L21.8438 312.87Z" fill="white" stroke="#AAAAAA" stroke-linecap="round" stroke-linejoin="round"/>
<path d="M33.3225 312.87L27.5112 316.16L21.8438 312.87" fill="white"/>
<path d="M33.3225 312.87L27.5112 316.16L21.8438 312.87" stroke="#AAAAAA" stroke-linecap="round" stroke-linejoin="round"/>
<path d="M27.587 322.825L27.5112 316.16" stroke="#AAAAAA" stroke-linecap="round" stroke-linejoin="round"/>
<path d="M84.6702 318.617V325.251L90.4133 328.565L96.1565 325.251V318.617L90.4133 315.296L84.6702 318.617Z" fill="white" stroke="#AAAAAA" stroke-linecap="round" stroke-linejoin="round"/>
<path d="M96.1565 318.617L90.3451 321.908L84.6702 318.617" fill="white"/>
<path d="M96.1565 318.617L90.3451 321.908L84.6702 318.617" stroke="#AAAAAA" stroke-linecap="round" stroke-linejoin="round"/>
<path d="M90.4134 328.565L90.3452 321.907" stroke="#AAAAAA" stroke-linecap="round" stroke-linejoin="round"/>
<path d="M44.0134 -16.9109L50.9537 -20.9143L182.994 55.1201L182.569 130.851L175.629 135.173L44.0134 -16.9109Z" fill="white" stroke="#AAAAAA" stroke-linecap="round" stroke-linejoin="round"/>
<path d="M44.0134 -16.9109L175.629 59.1311V135.173L44.0134 59.1311V-16.9109Z" fill="white" stroke="#AAAAAA" stroke-linecap="round" stroke-linejoin="round"/>
<path d="M175.629 59.1311L182.994 55.1201" stroke="#AAAAAA" stroke-linecap="round" stroke-linejoin="round"/>
<path d="M154.748 62.9145L128.881 81.7866C123.819 85.373 117.379 81.8245 116.205 74.7882L113.439 58.2818C112.28 51.3365 105.968 47.7653 100.915 51.1848L100.112 51.7232C95.9445 54.5438 90.7014 52.6558 88.4359 47.515L82.6321 34.3144C79.4878 27.172 71.214 26.9066 67.7741 33.8367L57 55.5219" stroke="#AAAAAA" stroke-linecap="round" stroke-linejoin="round"/>
<path d="M53.3403 -4.1123L78.5633 10.4607" stroke="#AAAAAA" stroke-linecap="round" stroke-linejoin="round"/>
<path d="M67.6983 8.77761L53.3403 0.475098" stroke="#AAAAAA" stroke-linecap="round" stroke-linejoin="round"/>
<path d="M62.1066 10.1347L53.3403 5.06982" stroke="#AAAAAA" stroke-linecap="round" stroke-linejoin="round"/>
<path d="M66.6527 17.3532L53.3403 9.66479" stroke="#AAAAAA" stroke-linecap="round" stroke-linejoin="round"/>
<path d="M160.809 109.454C160.809 109.538 170.659 115.186 170.659 115.186L170.568 126.484L160.794 120.835L160.809 109.454Z" fill="white" stroke="#AAAAAA" stroke-linecap="round" stroke-linejoin="round"/>
<path d="M160.809 93.865C160.809 93.9484 170.659 99.6047 170.659 99.6047L170.568 110.902L160.794 105.253L160.809 93.865Z" fill="white" stroke="#AAAAAA" stroke-linecap="round" stroke-linejoin="round"/>
<path d="M49.249 -4.90063V56.8564L158.271 119.849" stroke="#AAAAAA" stroke-linecap="round" stroke-linejoin="round"/>
<path d="M144.254 65.8414L155.028 62.4749L151.285 71.8085" stroke="#AAAAAA" stroke-linecap="round" stroke-linejoin="round"/>
<path d="M133.593 -73.3529L139.246 -76.6208L214.331 -34.623L214.187 24.1315L207.747 28.9614" fill="white"/>
<path d="M133.593 -73.3529L139.246 -76.6208L214.331 -34.623L214.187 24.1315L207.747 28.9614" stroke="#AAAAAA" stroke-linecap="round" stroke-linejoin="round"/>
<path d="M133.593 -73.353L207.747 -30.8168V28.9613L134.343 -13.446L133.593 -73.353Z" fill="white" stroke="#AAAAAA" stroke-linecap="round" stroke-linejoin="round"/>
<path d="M203.208 -22.9464V22.4482L137.207 -15.4173V-60.8271L203.208 -22.9464Z" fill="white" stroke="#AAAAAA" stroke-linecap="round" stroke-linejoin="round"/>
<path d="M203.208 17.0421V22.4482L137.207 -15.4173V-20.8462L203.208 17.0421Z" stroke="#AAAAAA" stroke-linecap="round" stroke-linejoin="round"/>
<path d="M201.261 18.0128V19.9993L166.999 0.331047L138.806 -15.857V-17.8435L166.999 -1.65549L201.261 18.0128Z" fill="#AAAAAA"/>
<path d="M201.261 18.0127V19.9993L166.999 0.331017V-1.65552L201.261 18.0127Z" fill="#AAAAAA"/>
</svg>
